<svg width="452" height="332" viewBox="0 0 452 332" fill="none" xmlns="http://www.w3.org/2000/svg">
<g clip-path="url(#clip0)">
<path opacity="0.1" d="M262.62 49.7905C233.644 48.7882 206.043 39.4438 179.691 29.229C153.338 19.0141 127.23 7.69308 98.9494 2.27817C80.7571 -1.20399 59.9528 -1.68718 45.2965 8.0405C31.1882 17.4088 26.6322 33.5976 24.1841 48.5925C22.3401 59.8855 21.2561 71.7536 26.3042 82.3399C29.8122 89.6756 36.0403 95.8452 40.3484 102.873C55.3287 127.336 44.7485 157.498 28.5002 181.378C20.9001 192.583 12.0479 203.269 6.17181 215.197C0.295704 227.125 -2.42434 240.786 2.71575 252.95C7.81584 265.009 19.96 274.066 33.1163 280.436C59.8407 293.374 91.3333 297.08 122.042 299.176C190.023 303.8 258.364 301.804 326.521 299.807C351.746 299.06 377.078 298.306 401.895 294.412C415.671 292.252 429.895 288.822 439.895 280.535C452.596 270.017 455.744 252.207 447.232 239.005C432.959 216.886 393.491 211.391 383.514 187.651C378.022 174.585 383.662 160.03 391.643 147.91C408.763 121.909 437.459 99.1037 438.971 69.3856C440.011 48.9758 426.215 28.5341 404.887 18.8783C382.526 8.7553 351.526 10.0292 335.03 26.7851C318.053 44.0401 288.205 50.677 262.62 49.7905Z" fill="#80ce80"/>
<path d="M266 302L188 301L188.228 299L192 266H260.5L265.54 299L265.924 301.5L266 302Z" fill="#D0D2D5"/>
<path opacity="0.1" d="M266 301H227.038L188 300.6L188.228 299H265.616L266 301Z" fill="black"/>
<path d="M278 299H175V301H278V299Z" fill="#D0D2D5"/>
<path d="M377 67.5134C377.004 66.6622 376.84 65.8185 376.517 65.0306C376.194 64.2426 375.718 63.5257 375.116 62.9209C374.515 62.3161 373.8 61.8351 373.012 61.5056C372.224 61.176 371.379 61.0042 370.524 61H81.4801C80.6251 61.0037 79.7792 61.1751 78.9908 61.5044C78.2023 61.8338 77.4868 62.3146 76.885 62.9195C76.2832 63.5244 75.807 64.2414 75.4836 65.0296C75.1602 65.8179 74.9959 66.6619 75.0001 67.5134V242H377V67.5134Z" fill="#444053"/>
<path d="M75 241V261.52C75 263.239 75.6827 264.887 76.8979 266.102C78.1132 267.317 79.7614 268 81.48 268H370.524C372.242 267.999 373.889 267.316 375.103 266.101C376.318 264.886 377 263.238 377 261.52V241H75Z" fill="#D0D2D5"/>
<path opacity="0.1" d="M366 72H87V229H366V72Z" fill="#80ce80"/>
<path d="M227.491 260C228.477 260.001 229.45 259.777 230.337 259.346C231.224 258.916 232.002 258.289 232.612 257.513C232.797 257.276 232.966 257.027 233.117 256.768L229.546 256.181L233.402 256.212C233.774 255.404 233.977 254.53 233.998 253.641C234.019 252.752 233.859 251.869 233.526 251.045L228.347 253.748L233.125 250.234C232.676 249.463 232.073 248.792 231.355 248.264C230.637 247.735 229.818 247.361 228.949 247.162C228.079 246.964 227.179 246.947 226.303 247.112C225.427 247.277 224.594 247.62 223.857 248.121C223.119 248.622 222.491 249.269 222.014 250.022C221.536 250.776 221.218 251.62 221.079 252.501C220.941 253.383 220.984 254.284 221.208 255.148C221.431 256.012 221.83 256.821 222.378 257.525C222.988 258.298 223.765 258.922 224.651 259.351C225.536 259.779 226.507 260.001 227.491 260Z" fill="#454B69"/>
<path opacity="0.1" d="M234 268L265 299L260.246 268H234Z" fill="black"/>
<path d="M277.959 101H97.0411C96.4661 101 96 101.463 96 102.034V208.966C96 209.537 96.4661 210 97.0411 210H277.959C278.534 210 279 209.537 279 208.966V102.034C279 101.463 278.534 101 277.959 101Z" fill="white"/>
<path d="M366 72H88V81H366V72Z" fill="white"/>
<path d="M96.688 74H89.312C89.1397 74 89 74.1497 89 74.3343V79.6657C89 79.8503 89.1397 80 89.312 80H96.688C96.8603 80 97 79.8503 97 79.6657V74.3343C97 74.1497 96.8603 74 96.688 74Z" fill="#80ce80"/>
<path opacity="0.3" d="M267.768 74H184.232C184.104 74 184 74.1113 184 74.2486V79.7514C184 79.8887 184.104 80 184.232 80H267.768C267.896 80 268 79.8887 268 79.7514V74.2486C268 74.1113 267.896 74 267.768 74Z" fill="#80ce80"/>
<path d="M265.544 77.5054H265.317L265.233 77.448C265.518 77.1751 265.675 76.83 265.677 76.4731C265.674 76.1799 265.564 75.894 265.36 75.6513C265.156 75.4086 264.868 75.2201 264.532 75.1096C264.195 74.999 263.826 74.9714 263.47 75.0301C263.114 75.0889 262.788 75.2314 262.532 75.4397C262.277 75.648 262.103 75.9127 262.034 76.2005C261.964 76.4883 262.002 76.7862 262.142 77.0567C262.283 77.3271 262.519 77.558 262.822 77.7201C263.124 77.8823 263.48 77.9684 263.843 77.9677C264.285 77.9656 264.712 77.8388 265.051 77.6093L265.135 77.6667V77.853L266.556 79L267 78.6416L265.544 77.5054ZM263.838 77.5054C263.584 77.5061 263.335 77.4458 263.124 77.3323C262.912 77.2188 262.747 77.057 262.649 76.8676C262.551 76.6782 262.526 76.4696 262.575 76.2683C262.624 76.0671 262.747 75.8822 262.926 75.7371C263.106 75.592 263.335 75.4933 263.585 75.4534C263.834 75.4136 264.092 75.4344 264.327 75.5132C264.562 75.5921 264.762 75.7254 264.903 75.8963C265.043 76.0672 265.118 76.2679 265.117 76.4731C265.118 76.6089 265.086 76.7436 265.022 76.8693C264.958 76.9949 264.864 77.1091 264.745 77.2052C264.626 77.3012 264.485 77.3772 264.329 77.4287C264.173 77.4803 264.007 77.5063 263.838 77.5054Z" fill="#444053"/>
<path d="M362 80C363.657 80 365 78.6569 365 77C365 75.3431 363.657 74 362 74C360.343 74 359 75.3431 359 77C359 78.6569 360.343 80 362 80Z" fill="#80ce80"/>
<path d="M317.028 92H292.972C292.435 92 292 92.4451 292 92.9941V109.006C292 109.555 292.435 110 292.972 110H317.028C317.565 110 318 109.555 318 109.006V92.9941C318 92.4451 317.565 92 317.028 92Z" fill="white"/>
<path d="M357.753 92H324.247C324.111 92 324 92.117 324 92.2614V94.7386C324 94.883 324.111 95 324.247 95H357.753C357.889 95 358 94.883 358 94.7386V92.2614C358 92.117 357.889 92 357.753 92Z" fill="white"/>
<path d="M357.753 98H324.247C324.111 98 324 98.117 324 98.2614V100.739C324 100.883 324.111 101 324.247 101H357.753C357.889 101 358 100.883 358 100.739V98.2614C358 98.117 357.889 98 357.753 98Z" fill="white"/>
<path d="M357.753 104H324.247C324.111 104 324 104.117 324 104.261V106.739C324 106.883 324.111 107 324.247 107H357.753C357.889 107 358 106.883 358 106.739V104.261C358 104.117 357.889 104 357.753 104Z" fill="white"/>
<path d="M317.028 119H292.972C292.435 119 292 119.445 292 119.994V136.006C292 136.555 292.435 137 292.972 137H317.028C317.565 137 318 136.555 318 136.006V119.994C318 119.445 317.565 119 317.028 119Z" fill="white"/>
<path d="M357.753 119H324.247C324.111 119 324 119.117 324 119.261V121.739C324 121.883 324.111 122 324.247 122H357.753C357.889 122 358 121.883 358 121.739V119.261C358 119.117 357.889 119 357.753 119Z" fill="white"/>
<path d="M357.753 125H324.247C324.111 125 324 125.117 324 125.261V127.739C324 127.883 324.111 128 324.247 128H357.753C357.889 128 358 127.883 358 127.739V125.261C358 125.117 357.889 125 357.753 125Z" fill="white"/>
<path d="M357.733 131H324.267C324.12 131 324 131.127 324 131.283V133.717C324 133.873 324.12 134 324.267 134H357.733C357.88 134 358 133.873 358 133.717V131.283C358 131.127 357.88 131 357.733 131Z" fill="white"/>
<path d="M317.028 147H292.972C292.435 147 292 147.445 292 147.994V164.006C292 164.555 292.435 165 292.972 165H317.028C317.565 165 318 164.555 318 164.006V147.994C318 147.445 317.565 147 317.028 147Z" fill="white"/>
<path d="M357.733 147H324.267C324.12 147 324 147.127 324 147.283V149.717C324 149.873 324.12 150 324.267 150H357.733C357.88 150 358 149.873 358 149.717V147.283C358 147.127 357.88 147 357.733 147Z" fill="white"/>
<path d="M357.733 153H324.267C324.12 153 324 153.127 324 153.283V155.717C324 155.873 324.12 156 324.267 156H357.733C357.88 156 358 155.873 358 155.717V153.283C358 153.127 357.88 153 357.733 153Z" fill="white"/>
<path d="M357.733 159H324.267C324.12 159 324 159.127 324 159.283V161.717C324 161.873 324.12 162 324.267 162H357.733C357.88 162 358 161.873 358 161.717V159.283C358 159.127 357.88 159 357.733 159Z" fill="white"/>
<path d="M317.028 174H292.972C292.435 174 292 174.445 292 174.994V191.006C292 191.555 292.435 192 292.972 192H317.028C317.565 192 318 191.555 318 191.006V174.994C318 174.445 317.565 174 317.028 174Z" fill="white"/>
<path d="M357.733 174H324.267C324.12 174 324 174.127 324 174.283V176.717C324 176.873 324.12 177 324.267 177H357.733C357.88 177 358 176.873 358 176.717V174.283C358 174.127 357.88 174 357.733 174Z" fill="white"/>
<path d="M357.733 180H324.267C324.12 180 324 180.127 324 180.283V182.717C324 182.873 324.12 183 324.267 183H357.733C357.88 183 358 182.873 358 182.717V180.283C358 180.127 357.88 180 357.733 180Z" fill="white"/>
<path d="M357.733 186H324.267C324.12 186 324 186.127 324 186.283V188.717C324 188.873 324.12 189 324.267 189H357.733C357.88 189 358 188.873 358 188.717V186.283C358 186.127 357.88 186 357.733 186Z" fill="white"/>
<path d="M317.028 202H292.972C292.435 202 292 202.445 292 202.994V219.006C292 219.555 292.435 220 292.972 220H317.028C317.565 220 318 219.555 318 219.006V202.994C318 202.445 317.565 202 317.028 202Z" fill="white"/>
<path d="M357.733 202H324.267C324.12 202 324 202.127 324 202.283V204.717C324 204.873 324.12 205 324.267 205H357.733C357.88 205 358 204.873 358 204.717V202.283C358 202.127 357.88 202 357.733 202Z" fill="white"/>
<path d="M357.733 208H324.267C324.12 208 324 208.127 324 208.283V210.717C324 210.873 324.12 211 324.267 211H357.733C357.88 211 358 210.873 358 210.717V208.283C358 208.127 357.88 208 357.733 208Z" fill="white"/>
<path d="M357.733 214H324.267C324.12 214 324 214.127 324 214.283V216.717C324 216.873 324.12 217 324.267 217H357.733C357.88 217 358 216.873 358 216.717V214.283C358 214.127 357.88 214 357.733 214Z" fill="white"/>
<path opacity="0.1" d="M163 130H122V132H163V130Z" fill="#80ce80"/>
<path opacity="0.1" d="M130 119H126V130H130V119Z" fill="#80ce80"/>
<path opacity="0.1" d="M135 119H131V130H135V119Z" fill="#80ce80"/>
<path opacity="0.1" d="M141 119H137V130H141V119Z" fill="#80ce80"/>
<path opacity="0.1" d="M147 119H143V130H147V119Z" fill="#80ce80"/>
<path opacity="0.1" d="M153 119H149V130H153V119Z" fill="#80ce80"/>
<path opacity="0.1" d="M159 119H155V130H159V119Z" fill="#80ce80"/>
<path opacity="0.1" d="M130 121H126V122H130V121Z" fill="#80ce80"/>
<path opacity="0.1" d="M135 121H131V122H135V121Z" fill="#80ce80"/>
<path opacity="0.1" d="M141 121H137V122H141V121Z" fill="#80ce80"/>
<path opacity="0.1" d="M147 121H143V122H147V121Z" fill="#80ce80"/>
<path opacity="0.1" d="M153 121H149V122H153V121Z" fill="#80ce80"/>
<path opacity="0.1" d="M159 121H155V122H159V121Z" fill="#80ce80"/>
<path opacity="0.1" d="M130 126H126V127H130V126Z" fill="#80ce80"/>
<path opacity="0.1" d="M135 126H131V127H135V126Z" fill="#80ce80"/>
<path opacity="0.1" d="M141 126H137V127H141V126Z" fill="#80ce80"/>
<path opacity="0.1" d="M147 126H143V127H147V126Z" fill="#80ce80"/>
<path opacity="0.1" d="M153 126H149V127H153V126Z" fill="#80ce80"/>
<path opacity="0.1" d="M159 126H155V127H159V126Z" fill="#80ce80"/>
<path opacity="0.1" d="M253 135H212V137H253V135Z" fill="#80ce80"/>
<path opacity="0.1" d="M220 124H216V135H220V124Z" fill="#80ce80"/>
<path opacity="0.1" d="M226 124H222V135H226V124Z" fill="#80ce80"/>
<path opacity="0.1" d="M231 124H227V135H231V124Z" fill="#80ce80"/>
<path opacity="0.1" d="M237 124H233V135H237V124Z" fill="#80ce80"/>
<path opacity="0.1" d="M243 124H239V135H243V124Z" fill="#80ce80"/>
<path opacity="0.1" d="M249 124H245V135H249V124Z" fill="#80ce80"/>
<path opacity="0.1" d="M220 126H216V127H220V126Z" fill="#80ce80"/>
<path opacity="0.1" d="M226 126H222V127H226V126Z" fill="#80ce80"/>
<path opacity="0.1" d="M231 126H227V127H231V126Z" fill="#80ce80"/>
<path opacity="0.1" d="M237 126H233V127H237V126Z" fill="#80ce80"/>
<path opacity="0.1" d="M243 126H239V127H243V126Z" fill="#80ce80"/>
<path opacity="0.1" d="M249 126H245V127H249V126Z" fill="#80ce80"/>
<path opacity="0.1" d="M220 132H216V133H220V132Z" fill="#80ce80"/>
<path opacity="0.1" d="M226 132H222V133H226V132Z" fill="#80ce80"/>
<path opacity="0.1" d="M231 132H227V133H231V132Z" fill="#80ce80"/>
<path opacity="0.1" d="M237 132H233V133H237V132Z" fill="#80ce80"/>
<path opacity="0.1" d="M243 132H239V133H243V132Z" fill="#80ce80"/>
<path opacity="0.1" d="M249 132H245V133H249V132Z" fill="#80ce80"/>
<path opacity="0.1" d="M253 151H212V153H253V151Z" fill="#80ce80"/>
<path opacity="0.1" d="M220 140H216V151H220V140Z" fill="#80ce80"/>
<path opacity="0.1" d="M226 140H222V151H226V140Z" fill="#80ce80"/>
<path opacity="0.1" d="M231 140H227V151H231V140Z" fill="#80ce80"/>
<path opacity="0.1" d="M237 140H233V151H237V140Z" fill="#80ce80"/>
<path opacity="0.1" d="M243 140H239V151H243V140Z" fill="#80ce80"/>
<path opacity="0.1" d="M249 140H245V151H249V140Z" fill="#80ce80"/>
<path opacity="0.1" d="M220 142H216V143H220V142Z" fill="#80ce80"/>
<path opacity="0.1" d="M226 142H222V143H226V142Z" fill="#80ce80"/>
<path opacity="0.1" d="M231 142H227V143H231V142Z" fill="#80ce80"/>
<path opacity="0.1" d="M237 142H233V143H237V142Z" fill="#80ce80"/>
<path opacity="0.1" d="M243 142H239V143H243V142Z" fill="#80ce80"/>
<path opacity="0.1" d="M249 142H245V143H249V142Z" fill="#80ce80"/>
<path opacity="0.1" d="M220 147H216V148H220V147Z" fill="#80ce80"/>
<path opacity="0.1" d="M226 147H222V148H226V147Z" fill="#80ce80"/>
<path opacity="0.1" d="M231 147H227V148H231V147Z" fill="#80ce80"/>
<path opacity="0.1" d="M237 147H233V148H237V147Z" fill="#80ce80"/>
<path opacity="0.1" d="M243 147H239V148H243V147Z" fill="#80ce80"/>
<path opacity="0.1" d="M249 147H245V148H249V147Z" fill="#80ce80"/>
<path opacity="0.1" d="M147.359 153.408C147.047 153.018 146.762 152.608 146.505 152.181L152.529 151.217L146.021 151.264C145.397 149.938 145.056 148.501 145.02 147.042C144.983 145.582 145.252 144.131 145.809 142.777L154.534 147.191L146.476 141.411C147.226 140.127 148.24 139.009 149.453 138.126C150.667 137.243 152.054 136.614 153.529 136.279C155.003 135.944 156.533 135.91 158.021 136.18C159.51 136.449 160.925 137.016 162.178 137.845C163.431 138.674 164.496 139.747 165.304 140.996C166.112 142.245 166.647 143.644 166.875 145.105C167.103 146.566 167.019 148.057 166.628 149.484C166.238 150.912 165.549 152.245 164.605 153.4C165.096 154.004 165.516 154.659 165.858 155.353L158.04 159.323L166.375 156.596C166.958 158.282 167.101 160.084 166.792 161.838C166.483 163.592 165.732 165.244 164.605 166.644C165.882 168.224 166.678 170.123 166.9 172.124C167.123 174.125 166.764 176.147 165.864 177.958C164.964 179.769 163.56 181.296 161.813 182.365C160.065 183.433 158.044 184 155.982 184C153.92 184 151.899 183.433 150.152 182.365C148.404 181.296 147 179.769 146.1 177.958C145.201 176.147 144.842 174.125 145.064 172.124C145.287 170.123 146.082 168.224 147.359 166.644C145.838 164.755 145.011 162.422 145.011 160.02C145.011 157.618 145.838 155.285 147.359 153.396V153.408Z" fill="#80ce80"/>
<path opacity="0.1" d="M166.992 160.157C166.992 162.544 166.163 164.862 164.637 166.736C165.916 168.308 166.713 170.197 166.936 172.187C167.159 174.178 166.799 176.189 165.898 177.99C164.997 179.792 163.59 181.311 161.84 182.373C160.089 183.436 158.066 184 156 184C153.934 184 151.911 183.436 150.16 182.373C148.41 181.311 147.003 179.792 146.102 177.99C145.201 176.189 144.841 174.178 145.064 172.187C145.287 170.197 146.084 168.308 147.363 166.736C145.884 164.931 166.992 158.961 166.992 160.157Z" fill="#80ce80"/>
<path opacity="0.2" d="M156.587 186.917C156.604 186.944 156.619 186.971 156.633 187H153.374C153.392 186.973 153.402 186.943 153.42 186.917C153.139 186.396 152.995 185.806 153 185.206C152.999 184.795 153.065 184.387 153.196 184C153.377 184.03 153.602 184.064 153.861 184.095C154.617 184.175 155.379 184.175 156.135 184.095C156.353 184.072 156.577 184.042 156.808 184.004C156.806 184.01 156.806 184.017 156.808 184.023C156.937 184.403 157.002 184.805 157 185.21C157.007 185.808 156.864 186.397 156.587 186.917Z" fill="#3F3D56"/>
<path opacity="0.1" d="M143.418 188H123.345C123.302 187.884 123.263 187.76 123.227 187.639C122.52 185.324 122.602 182.834 123.46 180.573C121.5 179.194 120.053 177.184 119.349 174.867C118.646 172.551 118.729 170.06 119.583 167.797C119.179 167.514 118.797 167.202 118.437 166.863L123.719 164.183L117.713 166.122C116.748 165.025 116.012 163.739 115.552 162.343C115.092 160.947 114.916 159.469 115.037 158.002L124.408 159.724L115.269 156.491C115.584 155.034 116.193 153.658 117.056 152.451C117.919 151.244 119.018 150.232 120.284 149.479C121.55 148.726 122.955 148.247 124.411 148.073C125.868 147.9 127.344 148.035 128.747 148.47C130.149 148.906 131.448 149.632 132.562 150.603C133.675 151.574 134.579 152.77 135.217 154.114C135.855 155.458 136.212 156.922 136.267 158.414C136.321 159.905 136.072 161.392 135.535 162.781C136.168 163.23 136.753 163.747 137.278 164.323L131.209 170.417L138.116 165.361C139.152 166.819 139.813 168.517 140.041 170.3C140.27 172.084 140.057 173.898 139.423 175.577C141.329 176.92 142.752 178.862 143.473 181.105C144.194 183.348 144.175 185.769 143.418 188Z" fill="#80ce80"/>
<path opacity="0.1" d="M144.394 188H123.616C123.571 187.881 123.53 187.755 123.493 187.632C122.761 185.269 122.846 182.727 123.734 180.419C121.778 179.061 140.124 166.895 140.487 168.081C141.219 170.446 141.134 172.989 140.247 175.299C142.226 176.67 143.704 178.654 144.453 180.948C145.202 183.242 145.181 185.719 144.394 188Z" fill="#80ce80"/>
<path opacity="0.1" d="M236.48 173.204C235.241 175.268 233.338 176.856 231.078 177.714C231.175 178.478 231.19 179.249 231.122 180.016L222.483 179.5L230.922 181.318C230.674 182.461 230.239 183.555 229.635 184.558C228.899 185.786 227.92 186.853 226.756 187.694H214.994V188H203C203.024 187.897 203.048 187.798 203.076 187.694C203.514 186.052 204.338 184.536 205.482 183.272C206.625 182.008 208.055 181.033 209.653 180.425C209.346 178.042 209.854 175.626 211.096 173.564C212.338 171.502 214.242 169.914 216.501 169.055C216.438 168.564 216.409 168.069 216.413 167.574L221.991 169.762L216.473 166.542C216.636 165.091 217.096 163.688 217.824 162.42C218.552 161.152 219.533 160.044 220.707 159.166L225.789 167.336L221.979 158.34C224.054 157.2 226.45 156.77 228.796 157.117C231.142 157.464 233.308 158.569 234.958 160.261C236.609 161.953 237.652 164.137 237.927 166.476C238.202 168.816 237.693 171.18 236.48 173.204Z" fill="#80ce80"/>
<path opacity="0.1" d="M229.986 184.62C229.241 185.826 228.249 186.874 227.07 187.7H215.152V188H203C203.024 187.899 203.049 187.801 203.077 187.7C203.52 186.087 204.356 184.598 205.514 183.357C206.673 182.116 208.121 181.157 209.74 180.561C209.639 179.781 211.993 179.898 215.132 180.405C221.285 181.399 230.403 183.949 229.986 184.62Z" fill="#80ce80"/>
<path d="M178.731 155.612C178.731 155.612 180.214 163.667 176.904 166.297C173.594 168.927 179.709 184.692 189.799 182.851C199.889 181.01 204 167.788 204 167.788C204 167.788 193.894 165.685 197.641 155L178.731 155.612Z" fill="#EE8E9E"/>
<path opacity="0.1" d="M178.731 155.612C178.731 155.612 180.214 163.667 176.904 166.297C173.594 168.927 179.709 184.692 189.799 182.851C199.889 181.01 204 167.788 204 167.788C204 167.788 193.894 165.685 197.641 155L178.731 155.612Z" fill="black"/>
<path d="M187.5 161C196.613 161 204 153.613 204 144.5C204 135.387 196.613 128 187.5 128C178.387 128 171 135.387 171 144.5C171 153.613 178.387 161 187.5 161Z" fill="#EE8E9E"/>
<path d="M215 176.79V188H160V177.3C160 175.943 160.404 174.616 161.161 173.485C161.918 172.354 162.995 171.469 164.257 170.941L165.833 170.277C169.822 168.595 174.67 166.505 176.253 165.636C176.427 165.55 176.59 165.446 176.74 165.324C177.606 164.467 177.434 165.581 177.434 165.581C177.434 165.581 177.41 165.794 177.394 166.161C177.299 168.685 177.666 178.603 189.407 177.778C200.861 176.988 201.376 169.317 201.26 167.062C201.253 166.853 201.236 166.645 201.208 166.438C202 166.625 202.776 166.876 203.526 167.188C205.92 168.065 209.455 169.471 210.4 170.135C210.695 170.34 211.054 170.554 211.445 170.771C211.889 171.016 212.304 171.309 212.682 171.644C213.412 172.293 213.995 173.086 214.394 173.973C214.794 174.86 215 175.82 215 176.79Z" fill="#80ce80"/>
<path opacity="0.1" d="M203 167.162C202.041 171.554 199.028 179.782 188.17 179.997C176.601 180.223 175.93 168.855 176.005 165.628C176.179 165.546 176.342 165.442 176.49 165.32C177.351 164.474 177.177 165.574 177.177 165.574C177.177 165.574 175.72 178.553 189.023 177.621C202.325 176.688 200.69 166.424 200.69 166.424C200.69 166.362 201.681 166.701 203 167.162Z" fill="black"/>
<path d="M168.126 145.05C168.679 144.913 169.261 144.943 169.796 145.138C170.331 145.332 170.796 145.682 171.129 146.141C171.736 146.986 171.827 148.006 171.903 148.982C172.625 149.132 173.032 148.319 173.099 147.704C173.367 145.201 173.387 142.65 174.232 140.23C175.077 137.81 176.924 135.47 179.759 134.545C180.728 134.212 181.763 134.114 182.778 134.26C183.38 134.359 183.947 134.569 184.545 134.657C186.618 134.998 188.872 134.022 190.814 134.7C192.034 135.129 192.808 136.116 193.378 137.104C193.626 137.637 193.963 138.124 194.375 138.544C195.2 139.282 196.492 139.473 197.677 139.703C198.861 139.933 200.153 140.333 200.66 141.242C201.114 142.063 200.779 143.011 200.628 143.9C200.394 145.308 200.63 146.753 201.302 148.014C201.521 148.41 201.968 148.89 202.498 148.76C202.736 148.68 202.937 148.518 203.065 148.303C204.424 146.407 204.388 143.94 206.095 142.23C206.666 141.658 207.403 141.214 207.958 140.643C208.377 140.22 208.685 139.7 208.853 139.129C209.022 138.559 209.046 137.956 208.923 137.374C208.616 136.065 207.563 134.994 206.713 133.843C205.61 132.386 204.807 130.726 204.349 128.96C204.269 128.754 204.269 128.527 204.349 128.321C204.51 128.113 204.717 127.944 204.955 127.829C205.417 127.521 205.751 127.056 205.893 126.52C206.035 125.985 205.977 125.417 205.728 124.921C205.246 123.941 204.185 123.196 202.989 122.751C201.775 122.355 200.523 122.089 199.252 121.958C198.415 122.077 197.434 121.605 197.174 120.938C197.059 120.641 197.059 120.319 196.943 120.022C196.786 119.723 196.559 119.466 196.282 119.273C196.004 119.08 195.684 118.956 195.348 118.911C194.635 118.796 193.904 118.848 193.214 119.062C192.417 119.284 191.512 119.617 190.822 119.229C190.459 119.026 190.259 118.657 189.869 118.491C189.071 118.157 188.249 118.832 187.679 119.387C187.13 119.97 186.455 120.422 185.705 120.708C185.309 120.858 184.886 120.921 184.463 120.893C184.04 120.865 183.629 120.747 183.257 120.546C182.71 120.2 182.435 119.645 182 119.205C181.179 118.476 180.129 118.056 179.029 118.015C177.899 117.955 176.766 118.078 175.676 118.38C173.594 118.884 171.606 119.714 169.785 120.839C168.87 121.34 168.093 122.058 167.524 122.93C167.188 123.598 167.014 124.336 167.018 125.084C166.93 127.429 167.712 129.896 169.75 131.538C168.505 132.054 168.087 133.32 167.795 134.442C167.329 136.235 166.862 138.056 167.038 139.881C167.126 140.825 167.385 141.77 167.245 142.71C167.133 143.152 167.072 143.606 167.062 144.063C167.12 144.314 167.253 144.542 167.443 144.718C167.632 144.894 167.87 145.01 168.126 145.05Z" fill="#454B69"/>
<g opacity="0.1">
<path opacity="0.1" d="M208.693 138C208.524 138.385 208.294 138.738 208.014 139.045C207.49 139.619 206.793 140.063 206.253 140.616C204.639 142.298 204.673 144.757 203.387 146.635C203.267 146.847 203.077 147.007 202.852 147.083C202.362 147.216 201.939 146.753 201.721 146.344C201.471 145.847 201.283 145.319 201.159 144.773C201.132 144.91 201.106 145.048 201.083 145.166C200.862 146.56 201.086 147.991 201.721 149.24C201.928 149.633 202.35 150.108 202.852 149.978C203.076 149.899 203.266 149.739 203.387 149.526C204.673 147.649 204.639 145.205 206.253 143.512C206.793 142.946 207.49 142.506 208.014 141.94C208.411 141.521 208.702 141.006 208.861 140.441C209.02 139.876 209.043 139.279 208.927 138.703C208.869 138.462 208.791 138.227 208.693 138Z" fill="black"/>
<path opacity="0.1" d="M204.794 125.388C204.51 125.49 204.262 125.64 204.071 125.826C203.976 126.008 203.976 126.209 204.071 126.391C204.259 126.939 204.499 127.477 204.79 128C205.341 127.726 205.739 127.312 205.909 126.836C206.079 126.359 206.009 125.854 205.713 125.413C205.62 125.268 205.509 125.129 205.38 125C205.211 125.15 205.014 125.28 204.794 125.388Z" fill="black"/>
<path opacity="0.1" d="M170 129.608C168.455 128.448 167.437 126.806 167.143 125C167.065 125.356 167.021 125.718 167.013 126.082C166.912 127.818 167.414 129.539 168.447 131C168.76 130.378 169.312 129.882 170 129.608Z" fill="black"/>
<path opacity="0.1" d="M200.737 141.85C200.889 140.944 201.226 139.982 200.769 139.153C200.259 138.227 198.959 137.824 197.767 137.591C196.575 137.357 195.275 137.16 194.445 136.415C194.03 135.989 193.691 135.495 193.441 134.954C192.875 133.952 192.089 132.941 190.861 132.515C188.907 131.826 186.639 132.812 184.553 132.47C183.951 132.37 183.381 132.16 182.775 132.068C181.754 131.918 180.712 132.017 179.737 132.358C176.884 133.299 175.026 135.675 174.175 138.126C173.324 140.578 173.304 143.166 173.035 145.71C172.967 146.33 172.558 147.16 171.832 147.007C171.755 146.012 171.663 144.994 171.053 144.12C170.717 143.655 170.249 143.301 169.711 143.104C169.172 142.908 168.587 142.877 168.031 143.017C167.694 142.942 167.394 142.749 167.185 142.474C167.229 142.843 167.229 143.216 167.185 143.585C167.072 144.034 167.01 144.494 167 144.958C167.052 145.215 167.179 145.451 167.366 145.636C167.552 145.82 167.79 145.944 168.047 145.992C168.604 145.853 169.189 145.884 169.727 146.081C170.266 146.278 170.733 146.633 171.069 147.099C171.679 147.957 171.771 148.991 171.848 149.981C172.574 150.134 172.983 149.309 173.052 148.685C173.32 146.145 173.34 143.557 174.191 141.101C175.042 138.645 176.9 136.27 179.753 135.332C180.728 134.994 181.77 134.894 182.791 135.043C183.397 135.143 183.967 135.357 184.569 135.445C186.655 135.791 188.923 134.801 190.877 135.489C192.105 135.924 192.883 136.927 193.457 137.929C193.707 138.469 194.046 138.964 194.461 139.39C195.291 140.139 196.591 140.332 197.783 140.566C198.975 140.799 200.191 141.178 200.725 142.031C200.705 141.971 200.725 141.91 200.737 141.85Z" fill="black"/>
<path opacity="0.1" d="M167.244 141.207C167.309 140.469 167.265 139.725 167.112 139C166.995 139.766 166.97 140.542 167.036 141.314C167.036 141.512 167.08 141.71 167.108 141.904C167.152 141.67 167.212 141.44 167.244 141.207Z" fill="black"/>
</g>
<path d="M147.396 204.017V196.81C147.396 196.756 147.417 196.704 147.456 196.666C147.494 196.628 147.546 196.607 147.6 196.607H148.42C148.474 196.607 148.526 196.628 148.564 196.666C148.603 196.704 148.624 196.756 148.624 196.81V199.809L151.952 196.73C152.03 196.665 152.125 196.623 152.226 196.61C152.327 196.596 152.43 196.61 152.523 196.652C152.616 196.694 152.695 196.76 152.752 196.845C152.809 196.929 152.841 197.028 152.844 197.13V203.657C152.841 203.759 152.809 203.858 152.752 203.942C152.695 204.026 152.616 204.093 152.523 204.135C152.43 204.177 152.327 204.191 152.226 204.177C152.125 204.164 152.03 204.122 151.952 204.057L148.624 200.998V203.981C148.624 204.035 148.603 204.087 148.564 204.125C148.526 204.163 148.474 204.184 148.42 204.184H147.6C147.552 204.185 147.504 204.169 147.467 204.138C147.43 204.107 147.405 204.064 147.396 204.017Z" fill="#444053"/>
<path d="M227.808 196.81V204.016C227.808 204.043 227.803 204.07 227.792 204.095C227.782 204.12 227.766 204.143 227.747 204.162C227.728 204.181 227.705 204.196 227.679 204.206C227.654 204.216 227.627 204.22 227.6 204.22H226.8C226.746 204.22 226.694 204.198 226.656 204.16C226.618 204.122 226.596 204.07 226.596 204.016V201.018L223.268 204.092C223.189 204.157 223.094 204.198 222.993 204.212C222.892 204.226 222.789 204.211 222.696 204.17C222.603 204.128 222.523 204.061 222.466 203.977C222.409 203.893 222.376 203.795 222.372 203.693V197.141C222.376 197.04 222.409 196.941 222.466 196.857C222.523 196.773 222.603 196.706 222.696 196.665C222.789 196.623 222.892 196.608 222.993 196.622C223.094 196.636 223.189 196.677 223.268 196.742L226.596 199.8V196.822C226.596 196.768 226.618 196.716 226.656 196.678C226.694 196.64 226.746 196.618 226.8 196.618H227.6C227.653 196.617 227.704 196.636 227.743 196.672C227.782 196.708 227.805 196.757 227.808 196.81Z" fill="#444053"/>
<path d="M186.244 204.328H184.616C184.404 204.328 184.2 204.244 184.05 204.094C183.9 203.944 183.816 203.741 183.816 203.529V197.565C183.816 197.353 183.9 197.15 184.05 197C184.2 196.85 184.404 196.766 184.616 196.766H186.244C186.456 196.766 186.66 196.85 186.81 197C186.96 197.15 187.044 197.353 187.044 197.565V203.529C187.044 203.741 186.96 203.944 186.81 204.094C186.66 204.244 186.456 204.328 186.244 204.328ZM191.404 203.529V197.565C191.404 197.353 191.32 197.15 191.17 197C191.02 196.85 190.816 196.766 190.604 196.766H188.96C188.748 196.766 188.544 196.85 188.394 197C188.244 197.15 188.16 197.353 188.16 197.565V203.529C188.16 203.741 188.244 203.944 188.394 204.094C188.544 204.244 188.748 204.328 188.96 204.328H190.588C190.694 204.33 190.8 204.311 190.899 204.272C190.998 204.233 191.088 204.174 191.164 204.1C191.24 204.025 191.3 203.937 191.342 203.839C191.383 203.741 191.404 203.636 191.404 203.529Z" fill="#444053"/>
<path opacity="0.6" d="M235.6 187.096H139.6V188.162H235.6V187.096Z" fill="#444053"/>
<path d="M169.244 190.155C170.642 190.155 171.776 189.023 171.776 187.627C171.776 186.232 170.642 185.1 169.244 185.1C167.846 185.1 166.712 186.232 166.712 187.627C166.712 189.023 167.846 190.155 169.244 190.155Z" fill="#444053"/>
<path d="M169.244 187.096H139.6V188.162H169.244V187.096Z" fill="#444053"/>
<path d="M382.832 307.414C395.97 307.414 406.62 305.369 406.62 302.847C406.62 300.324 395.97 298.279 382.832 298.279C369.694 298.279 359.044 300.324 359.044 302.847C359.044 305.369 369.694 307.414 382.832 307.414Z" fill="#80ce80"/>
<path d="M382.436 304.523C383.965 304.523 385.204 302.904 385.204 300.906C385.204 298.909 383.965 297.289 382.436 297.289C380.907 297.289 379.668 298.909 379.668 300.906C379.668 302.904 380.907 304.523 382.436 304.523Z" fill="#3F3D56"/>
<path d="M382.436 300.1C383.965 300.1 385.204 298.48 385.204 296.482C385.204 294.485 383.965 292.865 382.436 292.865C380.907 292.865 379.668 294.485 379.668 296.482C379.668 298.48 380.907 300.1 382.436 300.1Z" fill="#3F3D56"/>
<path d="M382.436 295.68C383.965 295.68 385.204 294.061 385.204 292.063C385.204 290.065 383.965 288.446 382.436 288.446C380.907 288.446 379.668 290.065 379.668 292.063C379.668 294.061 380.907 295.68 382.436 295.68Z" fill="#3F3D56"/>
<path d="M382.436 291.257C383.965 291.257 385.204 289.637 385.204 287.64C385.204 285.642 383.965 284.022 382.436 284.022C380.907 284.022 379.668 285.642 379.668 287.64C379.668 289.637 380.907 291.257 382.436 291.257Z" fill="#3F3D56"/>
<path d="M382.436 286.833C383.965 286.833 385.204 285.214 385.204 283.216C385.204 281.218 383.965 279.599 382.436 279.599C380.907 279.599 379.668 281.218 379.668 283.216C379.668 285.214 380.907 286.833 382.436 286.833Z" fill="#3F3D56"/>
<path d="M382.436 282.409C383.965 282.409 385.204 280.79 385.204 278.792C385.204 276.794 383.965 275.175 382.436 275.175C380.907 275.175 379.668 276.794 379.668 278.792C379.668 280.79 380.907 282.409 382.436 282.409Z" fill="#3F3D56"/>
<path d="M382.436 277.985C383.965 277.985 385.204 276.366 385.204 274.368C385.204 272.37 383.965 270.751 382.436 270.751C380.907 270.751 379.668 272.37 379.668 274.368C379.668 276.366 380.907 277.985 382.436 277.985Z" fill="#3F3D56"/>
<path d="M392.8 244.105C393.178 243.623 393.522 243.116 393.832 242.588L386.552 241.39L394.424 241.45C395.178 239.81 395.589 238.034 395.632 236.23C395.676 234.426 395.35 232.632 394.676 230.958L384.124 236.428L393.86 229.285C392.948 227.711 391.721 226.341 390.255 225.261C388.789 224.181 387.116 223.414 385.34 223.007C383.565 222.601 381.724 222.564 379.933 222.898C378.143 223.233 376.44 223.932 374.932 224.952C373.424 225.972 372.142 227.292 371.167 228.828C370.192 230.364 369.544 232.084 369.264 233.881C368.984 235.677 369.078 237.513 369.54 239.272C370.002 241.031 370.821 242.676 371.948 244.105C371.361 244.849 370.855 245.651 370.436 246.501L379.884 251.399L369.812 248.026C369.105 250.112 368.93 252.341 369.303 254.512C369.676 256.683 370.585 258.726 371.948 260.458C370.41 262.411 369.453 264.757 369.188 267.227C368.922 269.697 369.358 272.192 370.446 274.426C371.533 276.66 373.229 278.544 375.339 279.862C377.448 281.18 379.887 281.879 382.376 281.879C384.865 281.879 387.303 281.18 389.413 279.862C391.523 278.544 393.218 276.66 394.306 274.426C395.394 272.192 395.83 269.697 395.564 267.227C395.299 264.757 394.342 262.411 392.804 260.458C394.641 258.124 395.64 255.242 395.64 252.274C395.64 249.305 394.641 246.423 392.804 244.089L392.8 244.105Z" fill="#80ce80"/>
<path opacity="0.1" d="M369.112 252.29C369.106 255.259 370.106 258.143 371.948 260.475C370.41 262.428 369.453 264.773 369.188 267.243C368.922 269.713 369.358 272.208 370.446 274.442C371.534 276.677 373.229 278.561 375.339 279.878C377.449 281.196 379.887 281.895 382.376 281.895C384.865 281.895 387.304 281.196 389.413 279.878C391.523 278.561 393.218 276.677 394.306 274.442C395.394 272.208 395.83 269.713 395.564 267.243C395.299 264.773 394.342 262.428 392.804 260.475C394.58 258.227 369.112 250.805 369.112 252.29Z" fill="black"/>
<path opacity="0.1" d="M116 332C137.87 332 155.6 328.246 155.6 323.616C155.6 318.985 137.87 315.231 116 315.231C94.1295 315.231 76.4 318.985 76.4 323.616C76.4 328.246 94.1295 332 116 332Z" fill="#80ce80"/>
<path d="M129.26 322.642C128.46 322.35 127.604 322.398 126.768 322.306C125.032 322.106 123.416 321.323 122.184 320.087C121.392 319.287 120.769 318.337 120.352 317.292C120.616 317.388 120.88 317.487 121.152 317.595C120.352 315.731 121.192 313.639 121.928 311.754C123.176 308.56 124.356 305.349 125.468 302.12C128.268 293.94 130.668 285.432 130.616 276.728C130.616 273.582 130.036 270.607 129.924 267.465C129.84 265.134 130.2 262.806 130.184 260.471C130.184 260.143 130.184 259.82 130.16 259.492C130.875 258.867 131.438 258.086 131.803 257.21C132.169 256.334 132.328 255.385 132.268 254.438C132.227 253.944 132.156 253.454 132.056 252.969C131.914 252.126 131.727 251.292 131.496 250.469C131.232 249.603 130.872 248.773 130.564 247.926C129.968 246.285 129.564 244.576 129.056 242.908C129.244 242.927 129.428 242.977 129.6 243.055C129.472 242.905 129.384 242.725 129.344 242.532C129.045 241.47 128.884 240.374 128.864 239.27L129.204 239.119C129.357 238.041 129.301 236.945 129.04 235.889C129.232 234.176 129.532 232.451 129.716 230.746C129.784 230.108 129.756 229.305 129.168 229.149C129.048 228.235 129 227.309 128.952 226.387C128.784 223.169 128.617 219.952 128.452 216.737C128.284 213.507 128.116 210.281 128.052 207.047C128.008 204.995 127.984 202.871 127.496 200.906C127.58 199.965 127.484 199.017 127.212 198.112C126.468 195.76 124.156 193.896 121.812 194.027C121.113 193.029 120.248 192.157 119.256 191.448C119.724 190.402 120.284 189.324 120.744 188.478C124.496 187.26 127.24 183.567 127.24 179.175C127.245 177.568 126.868 175.982 126.14 174.548C126.209 174.372 126.268 174.192 126.316 174.009C126.517 173.147 126.454 172.244 126.136 171.418C126.023 171.101 125.89 170.791 125.736 170.492C125.632 170.292 125.52 170.092 125.404 169.901L125.2 169.593C125.076 169.406 124.948 169.226 124.8 169.05C124.516 168.67 124.211 168.304 123.888 167.956C123.49 167.526 123.05 167.136 122.576 166.791C121.933 166.313 121.197 165.975 120.416 165.796C119.964 165.707 119.504 165.666 119.044 165.673C118.768 165.673 118.488 165.673 118.212 165.697C117.652 165.729 117.096 165.769 116.54 165.765C116.356 165.765 116.168 165.765 115.984 165.737C115.005 165.606 114.037 165.405 113.088 165.134L112.608 165.034C112.444 165.002 112.284 164.974 112.12 164.954C111.681 164.896 111.239 164.869 110.796 164.874H110.352C109.908 164.896 109.466 164.941 109.028 165.01L108.588 165.078C107.477 165.252 106.394 165.572 105.368 166.032C105.236 166.092 105.1 166.16 104.968 166.232L104.888 166.276C104.78 166.331 104.672 166.391 104.568 166.455L104.508 166.491L104.168 166.707L104.14 166.727C100.964 168.859 99.0879 172.899 98.6119 176.908C98.0799 181.407 99.0119 185.943 99.9439 190.37L100.784 194.363C100.82 194.542 100.86 194.718 100.896 194.898C99.7148 195.865 98.8063 197.123 98.2599 198.547C97.4599 200.543 97.4399 202.703 97.5039 204.867C97.5039 205.306 97.5279 205.745 97.5719 206.185C97.4719 207.015 97.3839 207.849 97.3279 208.688C97.0759 212.561 97.5479 216.453 97.4239 220.334C97.3279 223.324 96.8759 226.323 97.0959 229.293C97.2879 231.928 97.9959 234.483 98.6959 237.027L99.7039 240.652C99.7366 240.839 99.8243 241.013 99.9559 241.151C100.121 241.262 100.324 241.303 100.52 241.267C99.8642 242.753 99.3162 244.285 98.8799 245.85C98.5786 246.808 98.3801 247.796 98.2879 248.796C98.1559 250.625 98.5799 252.442 99.0039 254.218C99.6439 256.88 100.281 259.552 100.916 262.235C101.364 264.112 101.811 265.987 102.256 267.861C103.136 271.558 104.02 275.279 104.184 279.084C104.275 280.994 104.141 282.909 103.784 284.789C102.63 290.417 102.462 296.203 103.288 301.889C103.955 306.686 105.038 311.416 106.524 316.026C106.848 315.854 107.176 315.695 107.512 315.547L107.372 315.807C106.911 316.605 106.484 317.424 106.092 318.262C105.828 318.807 105.599 319.368 105.408 319.943C104.896 321.54 104.816 323.241 104.744 324.921C104.707 325.245 104.736 325.572 104.828 325.884C105.048 326.486 105.68 326.794 106.268 326.962C107.996 327.453 109.792 327.277 111.588 327.045C111.596 327.085 111.608 327.124 111.624 327.161C111.844 327.764 112.472 328.071 113.064 328.239C115.536 328.942 118.144 328.279 120.692 328.04C123.24 327.8 125.744 327.976 128.196 327.389C128.561 327.311 128.912 327.176 129.236 326.99C129.866 326.549 130.329 325.909 130.548 325.173C130.625 324.982 130.676 324.782 130.7 324.578C130.8 323.704 130.052 322.933 129.26 322.642ZM120.8 285.667C120.662 286.603 120.393 287.514 120 288.374C118.076 292.458 116.696 296.776 115.896 301.218C115.371 304.152 115.067 307.122 114.988 310.101C114.948 312.297 115.032 314.597 114.116 316.569L114.448 316.517C114.344 316.709 114.244 316.916 114.148 317.068L114.1 317.156C113.546 316.214 113.175 315.177 113.008 314.098C113.008 314.062 112.828 314.034 112.552 314.018C111.421 307.711 111.029 301.295 111.384 294.898C111.389 294.122 111.497 293.35 111.704 292.602C111.908 291.959 112.252 291.372 112.504 290.75C112.904 289.703 113.172 288.612 113.304 287.5C113.74 284.658 113.908 281.781 113.808 278.908C113.712 276.197 114.34 273.502 114.876 270.803C115.132 269.522 115.368 268.236 115.496 266.95L115.52 266.691C117.9 270.61 119.563 274.919 120.432 279.419C120.915 281.465 121.04 283.579 120.8 285.667ZM103.68 227.968L103.808 228.079C104.195 228.419 104.551 228.792 104.872 229.193C105.032 229.368 105.147 229.579 105.208 229.808C105.328 230.391 104.844 230.886 104.448 231.313C104.276 231.499 104.114 231.693 103.964 231.896C103.879 230.587 103.788 229.277 103.692 227.968H103.68Z" fill="url(#paint0_linear)"/>
<path d="M98.144 202.943L97.704 206.332C97.556 207.482 97.408 208.628 97.328 209.782C97.06 213.623 97.556 217.48 97.428 221.328C97.324 224.291 96.852 227.249 97.08 230.208C97.284 232.819 98.028 235.358 98.772 237.873L99.828 241.466C99.8641 241.654 99.9561 241.827 100.092 241.961C100.296 242.082 100.537 242.12 100.768 242.069L105.456 241.646C105.156 240.273 104.824 238.851 104.656 237.442C104.528 236.34 104.452 235.23 104.372 234.12C104.124 230.663 103.84 227.205 103.572 223.74L103.072 217.671C102.86 215.036 102.64 212.389 101.976 209.83C101.31 207.245 99.9904 204.874 98.144 202.943Z" fill="#80ce80"/>
<path opacity="0.1" d="M98.144 202.943L97.704 206.332C97.556 207.482 97.408 208.628 97.328 209.782C97.06 213.623 97.556 217.48 97.428 221.328C97.324 224.291 96.852 227.249 97.08 230.208C97.284 232.819 98.028 235.358 98.772 237.873L99.828 241.466C99.8641 241.654 99.9561 241.827 100.092 241.961C100.296 242.082 100.537 242.12 100.768 242.069L105.456 241.646C105.156 240.273 104.824 238.851 104.656 237.442C104.528 236.34 104.452 235.23 104.372 234.12C104.124 230.663 103.84 227.205 103.572 223.74L103.072 217.671C102.86 215.036 102.64 212.389 101.976 209.83C101.31 207.245 99.9904 204.874 98.144 202.943Z" fill="black"/>
<path d="M106.496 318.334C106.221 318.874 105.98 319.432 105.776 320.003C105.24 321.58 105.16 323.273 105.08 324.938C105.045 325.258 105.075 325.583 105.168 325.892C105.4 326.491 106.064 326.794 106.684 326.958C109.28 327.656 112.016 327.002 114.684 326.762C117.352 326.523 119.988 326.698 122.564 326.119C122.944 326.046 123.312 325.918 123.656 325.74C124.308 325.316 124.795 324.682 125.036 323.943C125.113 323.754 125.166 323.555 125.192 323.353C125.276 322.474 124.512 321.716 123.68 321.428C122.848 321.141 121.94 321.185 121.064 321.097C119.26 320.913 117.567 320.139 116.248 318.897C114.929 317.655 114.057 316.013 113.768 314.226C113.736 314.034 109.432 314.15 108.968 314.397C108.44 314.689 108.12 315.411 107.82 315.903C107.348 316.693 106.907 317.504 106.496 318.334Z" fill="#A26565"/>
<path opacity="0.1" d="M106.496 318.334C106.221 318.874 105.98 319.432 105.776 320.003C105.24 321.58 105.16 323.273 105.08 324.938C105.045 325.258 105.075 325.583 105.168 325.892C105.4 326.491 106.064 326.794 106.684 326.958C109.28 327.656 112.016 327.002 114.684 326.762C117.352 326.523 119.988 326.698 122.564 326.119C122.944 326.046 123.312 325.918 123.656 325.74C124.308 325.316 124.795 324.682 125.036 323.943C125.113 323.754 125.166 323.555 125.192 323.353C125.276 322.474 124.512 321.716 123.68 321.428C122.848 321.141 121.94 321.185 121.064 321.097C119.26 320.913 117.567 320.139 116.248 318.897C114.929 317.655 114.057 316.013 113.768 314.226C113.736 314.034 109.432 314.15 108.968 314.397C108.44 314.689 108.12 315.411 107.82 315.903C107.348 316.693 106.907 317.504 106.496 318.334Z" fill="black"/>
<path d="M113.636 319.603C113.359 320.141 113.118 320.698 112.916 321.268C112.376 322.865 112.296 324.538 112.22 326.203C112.183 326.523 112.213 326.848 112.308 327.157C112.536 327.756 113.2 328.059 113.82 328.227C116.416 328.922 119.156 328.267 121.82 328.027C124.484 327.788 127.128 327.963 129.7 327.384C130.082 327.307 130.45 327.173 130.792 326.985C131.445 326.562 131.932 325.928 132.172 325.189C132.249 324.999 132.302 324.801 132.328 324.598C132.412 323.723 131.648 322.961 130.816 322.673C129.984 322.386 129.076 322.434 128.2 322.342C126.397 322.157 124.704 321.384 123.385 320.143C122.067 318.902 121.194 317.261 120.904 315.475C120.872 315.283 116.568 315.395 116.104 315.643C115.572 315.934 115.252 316.657 114.952 317.148C114.496 317.958 114.048 318.773 113.636 319.603Z" fill="#A26565"/>
<path d="M132.248 277.191C132.304 285.819 129.792 294.251 126.844 302.344C125.676 305.553 124.437 308.736 123.128 311.89C122.352 313.758 121.476 315.834 122.308 317.679C119.908 316.768 117.468 316.233 114.944 316.653C115.904 314.696 115.812 312.421 115.856 310.265C115.938 307.31 116.253 304.366 116.8 301.461C117.647 297.04 119.1 292.756 121.116 288.729C121.524 287.88 121.805 286.976 121.952 286.046C122.28 283.994 122.024 281.886 121.596 279.854C120.675 275.365 118.925 271.087 116.436 267.238L116.412 267.493C116.263 268.777 116.046 270.052 115.764 271.314C115.2 273.985 114.54 276.66 114.64 279.347C114.744 282.196 114.568 285.048 114.112 287.863C113.965 288.968 113.676 290.049 113.252 291.081C112.976 291.7 112.616 292.278 112.4 292.921C112.184 293.661 112.071 294.427 112.064 295.197C111.744 301.693 112.064 308.288 113.392 314.656C111.164 314.481 108.936 315.124 106.944 316.122C105.387 311.563 104.248 306.873 103.544 302.108C102.676 296.473 102.852 290.727 104.064 285.156C104.442 283.298 104.583 281.4 104.484 279.506C104.312 275.734 103.384 272.044 102.46 268.379L101.052 262.79C100.385 260.128 99.7187 257.479 99.052 254.841C98.608 253.08 98.16 251.28 98.3 249.467C98.3977 248.473 98.607 247.492 98.924 246.544C99.9227 243.321 101.416 240.272 103.352 237.505C111.06 237.937 118.86 237.218 126.552 236.627C126.925 236.554 127.312 236.619 127.64 236.811C127.902 237.077 128.059 237.428 128.08 237.801L130.972 254.17C131.44 256.445 131.715 258.756 131.792 261.077C131.792 263.393 131.432 265.7 131.52 268.012C131.64 271.126 132.232 274.073 132.248 277.191Z" fill="#454B69"/>
<path opacity="0.1" d="M116.42 267.494C116.271 268.777 116.054 270.053 115.772 271.314C114.096 268.42 112.288 265.597 110.744 262.631C110.344 261.868 109.968 261.094 109.588 260.319L108.448 258.003C108.236 257.568 108.024 257.133 107.832 256.69C107.519 256.053 107.279 255.384 107.116 254.694C107.676 254.59 109.06 256.099 109.476 256.494C110.325 257.333 111.126 258.218 111.876 259.145C112.787 260.176 113.624 261.27 114.38 262.419C115.348 263.98 116.038 265.697 116.42 267.494Z" fill="black"/>
<path d="M122.84 188.079C122.84 188.079 118.56 194.886 119.352 196.311C120.144 197.737 105.872 195.046 105.872 195.046C105.872 195.046 113.644 188.239 112.848 185.388C112.052 182.537 122.84 188.079 122.84 188.079Z" fill="#EFB7B9"/>
<path d="M119.036 190.138C124.38 190.138 128.712 185.814 128.712 180.481C128.712 175.147 124.38 170.823 119.036 170.823C113.692 170.823 109.36 175.147 109.36 180.481C109.36 185.814 113.692 190.138 119.036 190.138Z" fill="#EFB7B9"/>
<path d="M122.984 195.217C121.948 193.782 120.542 192.654 118.916 191.951C117.979 191.616 117.01 191.378 116.024 191.241L112.164 190.562C111.22 190.394 110.208 190.238 109.328 190.626C108.883 190.853 108.478 191.151 108.128 191.508C106.788 192.75 105.488 194.111 103.804 194.83C103.344 195.025 102.864 195.169 102.404 195.365C100.52 196.163 99.112 197.864 98.316 199.757C97.476 201.729 97.452 203.873 97.516 206.017C97.5149 206.757 97.5886 207.495 97.736 208.221C97.9286 208.912 98.1733 209.587 98.468 210.241C98.9999 211.641 99.446 213.071 99.804 214.525C100.804 218.344 101.636 222.204 102.3 226.103C102.356 226.662 102.521 227.204 102.784 227.7C103.157 228.197 103.608 228.629 104.12 228.982C104.526 229.314 104.9 229.685 105.236 230.088C105.404 230.252 105.529 230.455 105.6 230.678C105.724 231.253 105.2 231.748 104.8 232.168C103.939 233.044 103.317 234.126 102.992 235.31C102.791 235.553 102.689 235.862 102.704 236.176C102.787 236.395 102.819 236.63 102.796 236.863C102.717 237.075 102.593 237.267 102.432 237.426C102.247 237.666 102.116 237.942 102.047 238.237C101.978 238.532 101.973 238.838 102.032 239.135C105.03 240.435 108.239 241.184 111.504 241.346C112.304 241.386 113.104 241.386 113.904 241.482C114.472 241.554 115.032 241.67 115.6 241.738C116.424 241.815 117.253 241.836 118.08 241.802C122.388 241.714 126.82 241.606 130.776 239.901C131.148 237.877 130.344 235.813 129.84 233.817C129.04 230.623 128.84 227.353 128.24 224.131C127.84 221.931 127.24 219.763 126.9 217.547C126.56 215.331 126.5 213.036 127.092 210.88C127.632 208.971 127.796 207.023 128.356 205.118C128.916 203.214 129.308 201.15 128.676 199.265C127.876 196.934 125.448 195.085 122.984 195.217Z" fill="#80ce80"/>
<path d="M127.736 175.358C128.208 173.645 127.28 171.861 126.176 170.467C124.976 168.97 123.448 167.621 121.572 167.245C120.048 166.938 118.468 167.309 116.916 167.185C115.544 167.078 114.224 166.582 112.86 166.387C111.622 166.254 110.372 166.301 109.148 166.527C107.986 166.699 106.851 167.015 105.768 167.469C101.648 169.293 99.236 173.789 98.676 178.249C98.116 182.708 99.096 187.204 100.072 191.591L100.956 195.56C101.876 199.692 102.796 203.84 103.04 208.065C103.284 212.289 102.828 216.624 101.088 220.481C106.715 217.464 111.075 212.537 113.38 206.591C114.004 204.958 114.468 203.262 115.164 201.657C115.76 200.275 116.524 198.966 117.052 197.556C117.649 195.966 117.935 194.276 117.896 192.578C117.864 191.3 117.652 190.03 117.688 188.753C117.724 187.475 118.052 186.146 118.936 185.219C119.736 184.401 120.836 184.022 121.848 183.491C123.441 182.674 124.833 181.515 125.924 180.097C126.56 179.267 126.596 178.899 126.756 177.957C126.916 177.015 127.488 176.264 127.736 175.358Z" fill="#A26565"/>
<path d="M127.748 247.906C127.848 248.9 127.668 249.902 127.884 250.888C128.048 251.623 128.428 252.286 128.652 253.004C128.874 253.834 128.988 254.689 128.992 255.547C129.024 256.266 128.968 257.144 128.328 257.48C128.048 257.628 127.712 257.628 127.42 257.755C127.128 257.883 126.88 258.23 127.048 258.502C127.216 258.773 127.504 258.73 127.768 258.781C128.032 258.833 128.316 259.105 128.168 259.324C128.108 259.396 128.027 259.448 127.936 259.472C127.669 259.554 127.415 259.675 127.184 259.831C127.071 259.914 126.982 260.025 126.928 260.154C126.874 260.283 126.856 260.424 126.876 260.562C126.892 260.628 126.923 260.69 126.966 260.742C127.01 260.795 127.064 260.837 127.126 260.865C127.188 260.894 127.256 260.908 127.324 260.906C127.392 260.905 127.459 260.888 127.52 260.858C127.403 261.108 127.339 261.38 127.332 261.656C128.356 262.095 129.504 261.52 130.464 260.965C130.879 260.734 131.28 260.478 131.664 260.199C132.441 259.604 133.059 258.828 133.467 257.939C133.874 257.051 134.057 256.076 134 255.1C133.954 254.61 133.878 254.124 133.772 253.643C133.624 252.806 133.428 251.978 133.184 251.164C132.908 250.305 132.532 249.487 132.208 248.644C131.52 246.852 131.076 244.975 130.452 243.159C130.41 242.97 130.304 242.802 130.152 242.684C130.014 242.616 129.861 242.587 129.708 242.6C129.008 242.563 128.306 242.628 127.624 242.791C127.224 242.911 126.54 243.191 126.352 243.59C126.164 243.989 126.464 244.325 126.644 244.656C127.219 245.658 127.594 246.762 127.748 247.906Z" fill="#EFB7B9"/>
<path opacity="0.1" d="M127.096 199.394C127.301 199.603 127.474 199.843 127.608 200.104C128.984 202.6 129 205.582 129.064 208.429C129.136 211.623 129.312 214.817 129.488 218.031L130.012 227.613C130.064 228.527 130.112 229.441 130.244 230.347C130.86 230.503 130.884 231.302 130.816 231.944C130.372 235.849 129.272 239.869 130.416 243.626C130.46 243.819 130.552 243.998 130.684 244.145C130.103 243.964 129.482 243.955 128.896 244.121C128.324 244.241 127.772 244.453 127.196 244.585C126.468 244.748 125.644 244.82 125.148 245.383C124.586 243.696 124.138 241.972 123.808 240.225C123.536 238.628 123.46 236.983 122.812 235.506C122.552 234.911 122.2 234.36 121.88 233.789C120.204 230.803 119.38 227.429 118.576 224.099C118.215 222.521 118.129 220.892 118.32 219.284C118.436 218.551 118.503 217.811 118.52 217.068C118.471 216.285 118.368 215.506 118.212 214.737C117.872 212.479 118.032 210.175 118.68 207.985C119.28 205.953 119.808 203.813 121.08 202.104C122.352 200.396 124.972 199.422 127.096 199.394Z" fill="black"/>
<path d="M127.572 199.074C127.778 199.285 127.95 199.526 128.084 199.788C129.46 202.28 129.476 205.266 129.54 208.113C129.612 211.307 129.788 214.501 129.964 217.695L130.488 227.277C130.54 228.191 130.588 229.105 130.72 230.012C131.336 230.167 131.36 230.966 131.288 231.609C130.848 235.513 129.748 239.53 130.888 243.291C130.932 243.483 131.024 243.662 131.156 243.81C130.575 243.628 129.954 243.62 129.368 243.786C128.796 243.905 128.244 244.117 127.668 244.245C126.94 244.413 126.116 244.48 125.62 245.043C125.06 243.348 124.616 241.617 124.292 239.861C124.02 238.264 123.944 236.623 123.296 235.146C123.015 234.558 122.704 233.985 122.364 233.429C120.684 230.443 119.864 227.065 119.06 223.735C118.699 222.157 118.613 220.528 118.804 218.92C119.105 217.415 119.068 215.862 118.696 214.373C118.356 212.117 118.516 209.814 119.164 207.626C119.764 205.593 120.292 203.454 121.564 201.745C122.836 200.036 125.448 199.106 127.572 199.074Z" fill="#80ce80"/>
<g opacity="0.1">
<path opacity="0.1" d="M126.176 170.467C124.976 168.97 123.448 167.621 121.572 167.245C120.048 166.938 118.468 167.309 116.916 167.185C115.544 167.078 114.224 166.582 112.86 166.387C111.622 166.254 110.372 166.301 109.148 166.527C107.986 166.699 106.851 167.015 105.768 167.469C105.183 167.73 104.624 168.047 104.1 168.415C105.064 168.041 106.066 167.773 107.088 167.617C108.311 167.39 109.56 167.343 110.796 167.477C112.164 167.652 113.48 168.144 114.856 168.251C116.404 168.375 117.984 168.008 119.512 168.311C121.388 168.687 122.924 170.04 124.112 171.537C125.22 172.927 126.144 174.711 125.676 176.428C125.428 177.33 124.852 178.121 124.696 179.051C124.54 179.981 124.5 180.361 123.86 181.191C123.039 182.256 122.047 183.178 120.924 183.918C121.232 183.774 121.548 183.63 121.848 183.475C123.441 182.658 124.833 181.499 125.924 180.081C126.56 179.251 126.596 178.883 126.756 177.941C126.916 176.999 127.488 176.224 127.736 175.318C128.208 173.645 127.28 171.861 126.176 170.467Z" fill="black"/>
<path opacity="0.1" d="M118.936 185.243C119.102 185.072 119.282 184.916 119.476 184.776C118.552 185.224 117.58 185.615 116.872 186.373C115.988 187.296 115.672 188.629 115.624 189.907C115.576 191.184 115.804 192.454 115.832 193.728C115.871 195.427 115.585 197.118 114.988 198.71C114.46 200.12 113.696 201.425 113.1 202.81C112.408 204.407 111.944 206.108 111.32 207.741C109.32 212.896 105.77 217.307 101.156 220.365C101.132 220.417 101.112 220.473 101.088 220.525C106.715 217.508 111.075 212.581 113.38 206.635C114.004 205.002 114.468 203.306 115.164 201.701C115.76 200.319 116.524 199.01 117.052 197.6C117.649 196.01 117.935 194.32 117.896 192.622C117.864 191.344 117.652 190.074 117.688 188.797C117.724 187.519 118.052 186.17 118.936 185.243Z" fill="black"/>
</g>
</g>
<defs>
<linearGradient id="paint0_linear" x1="114.672" y1="328.539" x2="114.672" y2="164.886" gradientUnits="userSpaceOnUse">
<stop stop-color="#808080" stop-opacity="0.25"/>
<stop offset="0.54" stop-color="#808080" stop-opacity="0.12"/>
<stop offset="1" stop-color="#808080" stop-opacity="0.1"/>
</linearGradient>
<clipPath id="clip0">
<rect width="452" height="332" fill="white"/>
</clipPath>
</defs>
</svg>
